<svg width="72" height="23" viewBox="0 0 72 23" fill="none" xmlns="http://www.w3.org/2000/svg">
<g clip-path="url(#clip0_2_109)">
<path fill-rule="evenodd" clip-rule="evenodd" d="M14.6667 4.83333H10.2222V9.2778H5.7778V13.7222H1.33333V18.1667H14.6667V4.83333Z" fill="white"/>
</g>
<path d="M33.224 18V4.68H42.53V7.092H35.996V10.584H41.702V12.906H35.996V18H33.224ZM44.538 18V4.32H47.274V18H44.538ZM50.8935 7.164C50.4135 7.164 50.0235 7.014 49.7235 6.714C49.4235 6.402 49.2735 6.036 49.2735 5.616C49.2735 5.172 49.4235 4.8 49.7235 4.5C50.0235 4.188 50.4135 4.032 50.8935 4.032C51.3495 4.032 51.7335 4.188 52.0455 4.5C52.3575 4.8 52.5135 5.172 52.5135 5.616C52.5135 6.036 52.3575 6.402 52.0455 6.714C51.7335 7.014 51.3495 7.164 50.8935 7.164ZM49.5255 18V8.46H52.2615V18H49.5255ZM54.0057 18L56.9037 13.248L54.0057 8.46H56.8497L58.7397 11.61L60.6657 8.46H63.5097L60.5037 13.248L63.4917 18H60.6657L58.7397 14.85L56.8677 18H54.0057ZM65.0109 18V8.46H67.7289V9.846H67.8189C67.9269 9.594 68.0769 9.348 68.2689 9.108C68.4609 8.868 68.7249 8.67 69.0609 8.514C69.3969 8.358 69.8289 8.28 70.3569 8.28C70.6209 8.28 70.8309 8.298 70.9869 8.334C71.1429 8.358 71.2209 8.37 71.2209 8.37V11.07C71.2209 11.07 71.1309 11.052 70.9509 11.016C70.7829 10.98 70.5609 10.962 70.2849 10.962C69.4329 10.962 68.7969 11.196 68.3769 11.664C67.9569 12.12 67.7469 12.87 67.7469 13.914V18H65.0109Z" fill="white"/>
<defs>
<clipPath id="clip0_2_109">
<rect width="16" height="16" fill="white" transform="translate(0 3.5)"/>
</clipPath>
</defs>
</svg>
